<svg id="b255dd11-8372-4bce-8efc-daa499a5b500" data-name="Layer 1" xmlns="http://www.w3.org/2000/svg" viewBox="0 0 930.88 172.9"><defs><style>.a98940eb-7ffc-4f83-8ef2-f2cca4562bb2{fill:#fff;}</style></defs><path d="M704.8,558.91a35.92,35.92,0,0,0-3.44-8.18q-.57-1-1.2-1.89a32.71,32.71,0,0,0-7.9-8l-94.81-.07c1,.55,2.11,1.07,3.24,1.55q8.74,3.62,24.85,6.55,7.56,1.38,16.75,2.61,15.15,1.21,21.44,6.52a9.84,9.84,0,0,1,.82.76q5.49,5.46,5.48,18,0,13-6.55,19.05t-21.45,6q-14.38,0-20.67-5.78-5-4.58-6.49-13.8a6.53,6.53,0,0,0-6.56-5.26H584.36a6.42,6.42,0,0,0-6.61,6.91q2.26,20.34,15.62,30.59Q608.9,626.45,642,626.45q65,0,65-49.68A64.54,64.54,0,0,0,704.8,558.91Zm-16.15-92.58q-13.23-12.78-47.9-12.78-33.9,0-47.51,12.42t-13.61,37.26a66.1,66.1,0,0,0,2.29,18.64l41.74.31a17.1,17.1,0,0,1-2.43-1.35q-5.65-4.33-5.65-16.64,0-13.74,5.78-19.77t20.42-6q14.64,0,20.29,6,4.54,4.84,5.93,15.33a6.49,6.49,0,0,0,6.58,5.41h25.06a2.14,2.14,0,0,0,2.21-2.1Q701.34,478.6,688.65,466.33Z" transform="translate(-51.57 -453.55)"/><path d="M890.2,455.72H861.82a6.45,6.45,0,0,0-6.64,6.24v62l37.24.28V457.8A2.15,2.15,0,0,0,890.2,455.72Zm-35,85.2v77.36a6.45,6.45,0,0,0,6.64,6.24h24a6.45,6.45,0,0,0,6.64-6.24V540.94Z" transform="translate(-51.57 -453.55)"/><path d="M423.31,455.72H327.64A6.45,6.45,0,0,0,321,462v57.95l37.24.28V482.4a2.15,2.15,0,0,1,2.21-2.08h58.43a6.45,6.45,0,0,0,6.64-6.24V457.8A2.15,2.15,0,0,0,423.31,455.72Zm0,144.2H360.45a2.15,2.15,0,0,1-2.21-2.07V553.29a2.15,2.15,0,0,1,2.21-2.08h50.21a6.76,6.76,0,0,0,5.21-2.37,5.92,5.92,0,0,0,1.44-3.86v-4.39l-63.49-.11h-3.9L321,540.42v77.86a6.45,6.45,0,0,0,6.64,6.24h91.24a6.45,6.45,0,0,0,6.64-6.24V602A2.15,2.15,0,0,0,423.31,599.92Z" transform="translate(-51.57 -453.55)"/><path d="M142.45,539.09a.7.7,0,0,0,.46,1h0l8.75,0v4.79a3.9,3.9,0,0,1-3.91,3.91H55.48a3.91,3.91,0,0,1-3.91-3.91V522.47a3.9,3.9,0,0,1,3.91-3.91h92.28a4,4,0,0,1,.6.05,3.89,3.89,0,0,1,3.31,3.86v.61Z" transform="translate(-51.57 -453.55)"/><path class="a98940eb-7ffc-4f83-8ef2-f2cca4562bb2" d="M980.94,524.87l-19.94,24H141.59V518.56l6.77.05,17.83.13.35.83H156.1a4.65,4.65,0,0,0-3.61,2.09l-.82,1.42-9.22,16a.7.7,0,0,0,.46,1h0l8.75,0,17.08,0,18.83,0V518.91l37.24.28,11,.08,38.38.29-11.74,18.51a2,2,0,0,0,0,2.16l.06.09,58.43.1,28.92.05h3.9l63.49.11,18.78,0V520.77l34.16.26v19.63h18.27l-9.28-19.57,28.84.22,9.06,19.37h16.29V521.51l33.9.25v19l30.12,0,94.81.07H716V522.88l37.24.28v1.38a2.15,2.15,0,0,0,2.21,2.08h50a2.15,2.15,0,0,0,2.22-2.08v-1l37.24.28v17.06h10.21l37.24,0,39.41,0,23.28,0a2.74,2.74,0,0,0,1.5-.44Z" transform="translate(-51.57 -453.55)"/><path d="M842.75,455.72H814.37a6.45,6.45,0,0,0-6.64,6.24v62.58a2.15,2.15,0,0,1-2.22,2.08h-50a2.15,2.15,0,0,1-2.21-2.08V457.8a2.15,2.15,0,0,0-2.21-2.08H722.68A6.45,6.45,0,0,0,716,462V618.28a6.45,6.45,0,0,0,6.64,6.24h24a6.45,6.45,0,0,0,6.64-6.24v-65a2.15,2.15,0,0,1,2.21-2.08h50a2.15,2.15,0,0,1,2.22,2.08v65a6.45,6.45,0,0,0,6.64,6.24h24a6.45,6.45,0,0,0,6.65-6.24V457.8A2.16,2.16,0,0,0,842.75,455.72Z" transform="translate(-51.57 -453.55)"/><path d="M565.11,455.72h-25a6.45,6.45,0,0,0-6.64,6.24v94.1a.94.94,0,0,1-.94.94h-.94L526,558a.93.93,0,0,1-1-.53l-4-8.62-3.8-8.15-9.06-19.37L478,457a2.22,2.22,0,0,0-2-1.25H442.73a6.45,6.45,0,0,0-6.64,6.24V618.28a6.45,6.45,0,0,0,6.64,6.24h20.88a6.45,6.45,0,0,0,6.64-6.24V506.34a.94.94,0,0,1,.94-.94h0a1,1,0,0,1,.86.54l7.19,15.16,9.28,19.57,3.88,8.17,4.34,9.15,29.8,62.83a6.66,6.66,0,0,0,6.06,3.7h28.09a6.45,6.45,0,0,0,6.64-6.24V457.8A2.15,2.15,0,0,0,565.11,455.72Z" transform="translate(-51.57 -453.55)"/><path d="M168.75,540.16a.64.64,0,0,1,0,.24,35.45,35.45,0,0,1-2.6,8.44,31.71,31.71,0,0,1-3.49,5.91c-4.59,6.16-11.18,10-18.5,10-9.47,0-17.7-6.43-22-15.92a37.36,37.36,0,0,1,0-30.28c4.3-9.5,12.54-15.92,22-15.92s17.8,6.5,22.07,16.1l.35.83H156.1a4.65,4.65,0,0,0-3.61,2.09l-.82,1.42-9.22,16a.7.7,0,0,0,.46,1h0l8.75,0Z" transform="translate(-51.57 -453.55)"/><path d="M982.25,526.28l-24,34.61A2.79,2.79,0,0,1,956,562l-63.55-.28-37.24-.17-10.21,0-37.24-.16-54.45-.25L716,561l-11.24-.05-40.25-.18-97.22-.43-33.9-.15-8.15,0L496.74,560l-26.49-.12-12.43,0-21.73-.23L365,558.85l-6.71-.07-8.32-.09-28.92-.3-48.22-.5-12.13-.13-26.7-.28-9.13-.09L187.58,557l-25-.26-21-.22.11-7.69.15-8.72h1.07l8.75,0,17.08,0,18.83,0,73.07.13h1.92l58.43.1,28.92.05h3.9l63.49.11,18.78,0,9.64,0,24.52,0h18.27l28.62,0h16.29l33.9,0,30.12,0,94.81.07H716l128.93.09h10.21l37.24,0,39.41,0,23.28,0a2.74,2.74,0,0,0,1.5-.44l24.33-15.7A1,1,0,0,1,982.25,526.28Z" transform="translate(-51.57 -453.55)"/><path d="M274.23,519.56l38.49-60.7a2.08,2.08,0,0,0-1.9-3.14H278.74a6.71,6.71,0,0,0-5.75,3.12l-37.14,60.43L229,530.5a2.24,2.24,0,0,1-4.13-1V457.8a2.15,2.15,0,0,0-2.21-2.08H194.22a6.45,6.45,0,0,0-6.64,6.24V618.28a6.45,6.45,0,0,0,6.64,6.24h24a6.45,6.45,0,0,0,6.64-6.24V548.64a2.24,2.24,0,0,1,4.12-1.06l.8,1.26,4.21,6.64,41.85,66a6.72,6.72,0,0,0,5.7,3h24.4c5.2,0,8.38-5.35,5.66-9.51l-38.78-59.12-4.62-7-5.59-8.52-.06-.09a2,2,0,0,1,0-2.16Z" transform="translate(-51.57 -453.55)"/></svg>